<?xml version="1.0" encoding="UTF-8" standalone="no"?>
<!-- Created with Inkscape (http://www.inkscape.org/) -->

<svg
   xmlns:dc="http://purl.org/dc/elements/1.1/"
   xmlns:cc="http://creativecommons.org/ns#"
   xmlns:rdf="http://www.w3.org/1999/02/22-rdf-syntax-ns#"
   xmlns:svg="http://www.w3.org/2000/svg"
   xmlns="http://www.w3.org/2000/svg"
   xmlns:sodipodi="http://sodipodi.sourceforge.net/DTD/sodipodi-0.dtd"
   xmlns:inkscape="http://www.inkscape.org/namespaces/inkscape"
   version="1.1"
   id="svg2"
   xml:space="preserve"
   width="1440"
   height="480"
   viewBox="0 0 1440 480"
   sodipodi:docname="README-plot_prot-2.svg"
   inkscape:version="0.92.1 r15371"><metadata
     id="metadata8"><rdf:RDF><cc:Work
         rdf:about=""><dc:format>image/svg+xml</dc:format><dc:type
           rdf:resource="http://purl.org/dc/dcmitype/StillImage" /><dc:title></dc:title></cc:Work></rdf:RDF></metadata><defs
     id="defs6"><clipPath
       clipPathUnits="userSpaceOnUse"
       id="clipPath36"><path
         d="M 0,73.39 H 1080 V 286.6 H 0 Z"
         id="path34"
         inkscape:connector-curvature="0" /></clipPath><clipPath
       clipPathUnits="userSpaceOnUse"
       id="clipPath48"><path
         d="M 78.74,103.64 H 751.15 V 281.12 H 78.74 Z"
         id="path46"
         inkscape:connector-curvature="0" /></clipPath></defs><sodipodi:namedview
     pagecolor="#ffffff"
     bordercolor="#666666"
     borderopacity="1"
     objecttolerance="10"
     gridtolerance="10"
     guidetolerance="10"
     inkscape:pageopacity="0"
     inkscape:pageshadow="2"
     inkscape:window-width="1920"
     inkscape:window-height="1017"
     id="namedview4"
     showgrid="false"
     inkscape:zoom="0.44166667"
     inkscape:cx="763.4204"
     inkscape:cy="343.61855"
     inkscape:window-x="1352"
     inkscape:window-y="-8"
     inkscape:window-maximized="1"
     inkscape:current-layer="g10" /><g
     id="g10"
     inkscape:groupmode="layer"
     inkscape:label="Rplot"
     transform="matrix(1.3333333,0,0,-1.3333333,0,480)"><g
       id="g12" /><g
       id="g14" /><g
       id="g16" /><g
       id="g18" /><g
       id="g20" /><g
       id="g22" /><g
       id="g24" /><g
       id="g26" /><g
       id="g28" /><g
       id="g30"><g
         id="g32"
         clip-path="url(#clipPath36)"><path
           d="M 0,73.39 H 1080 V 286.6 H 0 Z"
           style="fill:#ffffff;fill-opacity:1;fill-rule:nonzero;stroke:#ffffff;stroke-width:1.07000005;stroke-linecap:round;stroke-linejoin:round;stroke-miterlimit:10;stroke-dasharray:none;stroke-opacity:1"
           id="path38"
           inkscape:connector-curvature="0" /></g></g><g
       id="g40" /><g
       id="g42"><g
         id="g44"
         clip-path="url(#clipPath48)"><path
           d="M 78.74,103.64 H 751.15 V 281.12 H 78.74 Z"
           style="fill:#ffffff;fill-opacity:1;fill-rule:nonzero;stroke:none"
           id="path50"
           inkscape:connector-curvature="0" /><path
           d="M 78.74,121.39 H 751.15"
           style="fill:none;stroke:#000000;stroke-width:1.07000005;stroke-linecap:butt;stroke-linejoin:round;stroke-miterlimit:10;stroke-dasharray:none;stroke-opacity:1"
           id="path52"
           inkscape:connector-curvature="0" /><path
           d="m 78.74,263.38 h 192.7"
           style="fill:none;stroke:#000000;stroke-width:1.07000005;stroke-linecap:butt;stroke-linejoin:round;stroke-miterlimit:10;stroke-dasharray:none;stroke-opacity:1"
           id="path54"
           inkscape:connector-curvature="0" /><path
           d="M 78.74,156.89 H 340.4"
           style="fill:none;stroke:#000000;stroke-width:1.07000005;stroke-linecap:butt;stroke-linejoin:round;stroke-miterlimit:10;stroke-dasharray:none;stroke-opacity:1"
           id="path56"
           inkscape:connector-curvature="0" /><path
           d="M 78.74,192.39 H 531.07"
           style="fill:none;stroke:#000000;stroke-width:1.07000005;stroke-linecap:butt;stroke-linejoin:round;stroke-miterlimit:10;stroke-dasharray:none;stroke-opacity:1"
           id="path58"
           inkscape:connector-curvature="0" /><path
           d="M 78.74,227.88 H 399.23"
           style="fill:none;stroke:#000000;stroke-width:1.07000005;stroke-linecap:butt;stroke-linejoin:round;stroke-miterlimit:10;stroke-dasharray:none;stroke-opacity:1"
           id="path60"
           inkscape:connector-curvature="0" /><path
           d="m 363.73,108.97 h 23.33 v 24.85 h -23.33 z"
           style="fill:#efc000;fill-opacity:1;fill-rule:nonzero;stroke:#efc000;stroke-width:1.07000005;stroke-linecap:butt;stroke-linejoin:round;stroke-miterlimit:10;stroke-dasharray:none;stroke-opacity:1"
           id="path62"
           inkscape:connector-curvature="0" /><path
           d="m 241.01,144.46 h 19.27 v 24.85 h -19.27 z"
           style="fill:#efc000;fill-opacity:1;fill-rule:nonzero;stroke:#efc000;stroke-width:1.07000005;stroke-linecap:butt;stroke-linejoin:round;stroke-miterlimit:10;stroke-dasharray:none;stroke-opacity:1"
           id="path64"
           inkscape:connector-curvature="0" /><path
           d="m 272.45,144.46 h 21.3 v 24.85 h -21.3 z"
           style="fill:#efc000;fill-opacity:1;fill-rule:nonzero;stroke:#efc000;stroke-width:1.07000005;stroke-linecap:butt;stroke-linejoin:round;stroke-miterlimit:10;stroke-dasharray:none;stroke-opacity:1"
           id="path66"
           inkscape:connector-curvature="0" /><path
           d="M 387.06,108.97 H 751.15"
           style="fill:none;stroke:#000000;stroke-width:1.07000005;stroke-linecap:butt;stroke-linejoin:round;stroke-miterlimit:10;stroke-dasharray:4.27, 4.27;stroke-dashoffset:0;stroke-opacity:1"
           id="path68"
           inkscape:connector-curvature="0" /><path
           d="M 78.74,144.46 H 241.01"
           style="fill:none;stroke:#000000;stroke-width:1.07000005;stroke-linecap:butt;stroke-linejoin:round;stroke-miterlimit:10;stroke-dasharray:4.27, 4.27;stroke-dashoffset:0;stroke-opacity:1"
           id="path70"
           inkscape:connector-curvature="0" /><path
           d="M 293.75,144.46 H 340.4"
           style="fill:none;stroke:#000000;stroke-width:1.07000005;stroke-linecap:butt;stroke-linejoin:round;stroke-miterlimit:10;stroke-dasharray:4.27, 4.27;stroke-dashoffset:0;stroke-opacity:1"
           id="path72"
           inkscape:connector-curvature="0" /><path
           d="m 106.13,133.82 h 257.6"
           style="fill:none;stroke:#000000;stroke-width:1.07000005;stroke-linecap:butt;stroke-linejoin:round;stroke-miterlimit:10;stroke-dasharray:4.27, 4.27;stroke-dashoffset:0;stroke-opacity:1"
           id="path74"
           inkscape:connector-curvature="0" /><path
           d="m 260.28,169.31 h 12.17"
           style="fill:none;stroke:#000000;stroke-width:1.07000005;stroke-linecap:butt;stroke-linejoin:round;stroke-miterlimit:10;stroke-dasharray:4.27, 4.27;stroke-dashoffset:0;stroke-opacity:1"
           id="path76"
           inkscape:connector-curvature="0" /><path
           d="m 202.47,112.52 h 22.31 v 17.75 h -22.31 z"
           style="fill:#b2df8a;fill-opacity:1;fill-rule:nonzero;stroke:#333333;stroke-width:1.07000005;stroke-linecap:butt;stroke-linejoin:round;stroke-miterlimit:10;stroke-dasharray:none;stroke-opacity:1"
           id="path78"
           inkscape:connector-curvature="0" /><path
           d="m 108.15,112.52 h 40.57 v 17.75 h -40.57 z"
           style="fill:#fb9a99;fill-opacity:1;fill-rule:nonzero;stroke:#333333;stroke-width:1.07000005;stroke-linecap:butt;stroke-linejoin:round;stroke-miterlimit:10;stroke-dasharray:none;stroke-opacity:1"
           id="path80"
           inkscape:connector-curvature="0" /><path
           d="m 178.13,112.52 h 59.84 v 17.75 h -59.84 z"
           style="fill:#33a02c;fill-opacity:1;fill-rule:nonzero;stroke:#333333;stroke-width:1.07000005;stroke-linecap:butt;stroke-linejoin:round;stroke-miterlimit:10;stroke-dasharray:none;stroke-opacity:1"
           id="path82"
           inkscape:connector-curvature="0" /><path
           d="m 443.85,112.52 h 252.53 v 17.75 H 443.85 Z"
           style="fill:#fdbf6f;fill-opacity:1;fill-rule:nonzero;stroke:#333333;stroke-width:1.07000005;stroke-linecap:butt;stroke-linejoin:round;stroke-miterlimit:10;stroke-dasharray:none;stroke-opacity:1"
           id="path84"
           inkscape:connector-curvature="0" /><path
           d="m 435.74,112.52 h 205.88 v 17.75 H 435.74 Z"
           style="fill:#cab2d6;fill-opacity:1;fill-rule:nonzero;stroke:#333333;stroke-width:1.07000005;stroke-linecap:butt;stroke-linejoin:round;stroke-miterlimit:10;stroke-dasharray:none;stroke-opacity:1"
           id="path86"
           inkscape:connector-curvature="0" /><path
           d="m 132.49,148.01 h 45.64 v 17.75 h -45.64 z"
           style="fill:#6a3d9a;fill-opacity:1;fill-rule:nonzero;stroke:#333333;stroke-width:1.07000005;stroke-linecap:butt;stroke-linejoin:round;stroke-miterlimit:10;stroke-dasharray:none;stroke-opacity:1"
           id="path88"
           inkscape:connector-curvature="0" /><path
           d="m 184.22,148.01 h 111.56 v 17.75 H 184.22 Z"
           style="fill:#ff7f00;fill-opacity:1;fill-rule:nonzero;stroke:#333333;stroke-width:1.07000005;stroke-linecap:butt;stroke-linejoin:round;stroke-miterlimit:10;stroke-dasharray:none;stroke-opacity:1"
           id="path90"
           inkscape:connector-curvature="0" /><path
           d="m 468.19,183.51 h 35.5 v 17.75 h -35.5 z"
           style="fill:#ffff99;fill-opacity:1;fill-rule:nonzero;stroke:#333333;stroke-width:1.07000005;stroke-linecap:butt;stroke-linejoin:round;stroke-miterlimit:10;stroke-dasharray:none;stroke-opacity:1"
           id="path92"
           inkscape:connector-curvature="0" /><path
           d="m 378.94,183.51 h 38.54 v 17.75 h -38.54 z"
           style="fill:#ffff99;fill-opacity:1;fill-rule:nonzero;stroke:#333333;stroke-width:1.07000005;stroke-linecap:butt;stroke-linejoin:round;stroke-miterlimit:10;stroke-dasharray:none;stroke-opacity:1"
           id="path94"
           inkscape:connector-curvature="0" /><path
           d="m 331.28,183.51 h 34.48 v 17.75 h -34.48 z"
           style="fill:#ffff99;fill-opacity:1;fill-rule:nonzero;stroke:#333333;stroke-width:1.07000005;stroke-linecap:butt;stroke-linejoin:round;stroke-miterlimit:10;stroke-dasharray:none;stroke-opacity:1"
           id="path96"
           inkscape:connector-curvature="0" /><path
           d="m 247.1,183.51 h 58.82 v 17.75 H 247.1 Z"
           style="fill:#a6cee3;fill-opacity:1;fill-rule:nonzero;stroke:#333333;stroke-width:1.07000005;stroke-linecap:butt;stroke-linejoin:round;stroke-miterlimit:10;stroke-dasharray:none;stroke-opacity:1"
           id="path98"
           inkscape:connector-curvature="0" /><path
           d="m 313.02,219.01 h 38.54 v 17.75 h -38.54 z"
           style="fill:#ffff99;fill-opacity:1;fill-rule:nonzero;stroke:#333333;stroke-width:1.07000005;stroke-linecap:butt;stroke-linejoin:round;stroke-miterlimit:10;stroke-dasharray:none;stroke-opacity:1"
           id="path100"
           inkscape:connector-curvature="0" /><path
           d="m 268.4,219.01 h 38.54 v 17.75 H 268.4 Z"
           style="fill:#ffff99;fill-opacity:1;fill-rule:nonzero;stroke:#333333;stroke-width:1.07000005;stroke-linecap:butt;stroke-linejoin:round;stroke-miterlimit:10;stroke-dasharray:none;stroke-opacity:1"
           id="path102"
           inkscape:connector-curvature="0" /><path
           d="M 149.74,219.01 H 254.2 v 17.75 H 149.74 Z"
           style="fill:#1f78b4;fill-opacity:1;fill-rule:nonzero;stroke:#333333;stroke-width:1.07000005;stroke-linecap:butt;stroke-linejoin:round;stroke-miterlimit:10;stroke-dasharray:none;stroke-opacity:1"
           id="path104"
           inkscape:connector-curvature="0" /><path
           d="m 94.97,219.01 h 32.45 v 17.75 H 94.97 Z"
           style="fill:#ffff99;fill-opacity:1;fill-rule:nonzero;stroke:#333333;stroke-width:1.07000005;stroke-linecap:butt;stroke-linejoin:round;stroke-miterlimit:10;stroke-dasharray:none;stroke-opacity:1"
           id="path106"
           inkscape:connector-curvature="0" /><path
           d="m 357.65,219.01 h 36.51 v 17.75 h -36.51 z"
           style="fill:#ffff99;fill-opacity:1;fill-rule:nonzero;stroke:#333333;stroke-width:1.07000005;stroke-linecap:butt;stroke-linejoin:round;stroke-miterlimit:10;stroke-dasharray:none;stroke-opacity:1"
           id="path108"
           inkscape:connector-curvature="0" /><path
           d="m 183.2,219.01 h 37.53 v 17.75 H 183.2 Z"
           style="fill:#ffff99;fill-opacity:1;fill-rule:nonzero;stroke:#333333;stroke-width:1.07000005;stroke-linecap:butt;stroke-linejoin:round;stroke-miterlimit:10;stroke-dasharray:none;stroke-opacity:1"
           id="path110"
           inkscape:connector-curvature="0" /><path
           d="m 224.79,219.01 h 38.54 v 17.75 h -38.54 z"
           style="fill:#ffff99;fill-opacity:1;fill-rule:nonzero;stroke:#333333;stroke-width:1.07000005;stroke-linecap:butt;stroke-linejoin:round;stroke-miterlimit:10;stroke-dasharray:none;stroke-opacity:1"
           id="path112"
           inkscape:connector-curvature="0" /><path
           d="m 140.61,219.01 h 37.53 v 17.75 h -37.53 z"
           style="fill:#ffff99;fill-opacity:1;fill-rule:nonzero;stroke:#333333;stroke-width:1.07000005;stroke-linecap:butt;stroke-linejoin:round;stroke-miterlimit:10;stroke-dasharray:none;stroke-opacity:1"
           id="path114"
           inkscape:connector-curvature="0" /><path
           d="m 115.25,254.5 h 128.8 v 17.75 h -128.8 z"
           style="fill:#e31a1c;fill-opacity:1;fill-rule:nonzero;stroke:#333333;stroke-width:1.07000005;stroke-linecap:butt;stroke-linejoin:round;stroke-miterlimit:10;stroke-dasharray:none;stroke-opacity:1"
           id="path116"
           inkscape:connector-curvature="0" /><path
           d="M 78.74,121.39 H 98.01"
           style="fill:none;stroke:#cd534c;stroke-width:4.26999998;stroke-linecap:butt;stroke-linejoin:round;stroke-miterlimit:10;stroke-dasharray:none;stroke-opacity:1"
           id="path118"
           inkscape:connector-curvature="0" /><path
           d="m 78.74,263.38 h 27.39"
           style="fill:none;stroke:#cd534c;stroke-width:4.26999998;stroke-linecap:butt;stroke-linejoin:round;stroke-miterlimit:10;stroke-dasharray:none;stroke-opacity:1"
           id="path120"
           inkscape:connector-curvature="0" /></g></g><g
       id="g122" /><g
       id="g124" /><g
       id="g126" /><g
       id="g128" /><g
       id="g130" /><g
       id="g132" /><g
       id="g134" /><g
       id="g136" /><g
       id="g138" /><g
       id="g140" /><g
       id="g142" /><g
       id="g144" /><g
       id="g146" /><g
       id="g148" /><g
       id="g150" /><g
       id="g152"><text
         transform="matrix(1,0,0,-1,18.86,118.16)"
         style="font-variant:normal;font-weight:normal;font-size:9px;font-family:Helvetica;-inkscape-font-specification:Helvetica;writing-mode:lr-tb;fill:#4d4d4d;fill-opacity:1;fill-rule:nonzero;stroke:none"
         id="text156"><tspan
           x="0 4.9229999 10.422 15.426 22.427999 27.431999 32.436001 37.439999 42.444 47.448002 49.950001"
           y="0"
           sodipodi:role="line"
           id="tspan154">AT5G41180.1</tspan></text>
<text
         transform="matrix(1,0,0,-1,18.86,153.66)"
         style="font-variant:normal;font-weight:normal;font-size:9px;font-family:Helvetica;-inkscape-font-specification:Helvetica;writing-mode:lr-tb;fill:#4d4d4d;fill-opacity:1;fill-rule:nonzero;stroke:none"
         id="text160"><tspan
           x="0 4.9229999 10.422 15.426 22.427999 27.431999 32.436001 37.439999 42.444 47.448002 49.950001"
           y="0"
           sodipodi:role="line"
           id="tspan158">AT5G38070.1</tspan></text>
<text
         transform="matrix(1,0,0,-1,18.86,189.15)"
         style="font-variant:normal;font-weight:normal;font-size:9px;font-family:Helvetica;-inkscape-font-specification:Helvetica;writing-mode:lr-tb;fill:#4d4d4d;fill-opacity:1;fill-rule:nonzero;stroke:none"
         id="text164"><tspan
           x="0 4.9229999 10.422 15.426 22.427999 27.431999 32.436001 37.439999 42.444 47.448002 49.950001"
           y="0"
           sodipodi:role="line"
           id="tspan162">AT4G33260.1</tspan></text>
<text
         transform="matrix(1,0,0,-1,18.86,224.65)"
         style="font-variant:normal;font-weight:normal;font-size:9px;font-family:Helvetica;-inkscape-font-specification:Helvetica;writing-mode:lr-tb;fill:#4d4d4d;fill-opacity:1;fill-rule:nonzero;stroke:none"
         id="text168"><tspan
           x="0 4.9229999 10.422 15.426 22.427999 27.431999 32.436001 37.439999 42.444 47.448002 49.950001"
           y="0"
           sodipodi:role="line"
           id="tspan166">AT3G49660.1</tspan></text>
<text
         transform="matrix(1,0,0,-1,18.86,260.15)"
         style="font-variant:normal;font-weight:normal;font-size:9px;font-family:Helvetica;-inkscape-font-specification:Helvetica;writing-mode:lr-tb;fill:#4d4d4d;fill-opacity:1;fill-rule:nonzero;stroke:none"
         id="text172"><tspan
           x="0 4.9229999 10.422 15.426 22.427999 27.431999 32.436001 37.439999 42.444 47.448002 49.950001"
           y="0"
           sodipodi:role="line"
           id="tspan170">AT5G24370.1</tspan></text>
</g><g
       id="g174" /><g
       id="g176" /><g
       id="g178" /><g
       id="g180" /><g
       id="g182" /><g
       id="g184" /><g
       id="g186" /><g
       id="g188" /><g
       id="g190"><path
         d="M 78.74,103.64 H 751.15"
         style="fill:none;stroke:#000000;stroke-width:0.75;stroke-linecap:round;stroke-linejoin:round;stroke-miterlimit:10;stroke-dasharray:none;stroke-opacity:1"
         id="path192"
         inkscape:connector-curvature="0" /></g><g
       id="g194" /><g
       id="g196" /><g
       id="g198"><path
         d="m 280.57,100.9 v 2.74"
         style="fill:none;stroke:#333333;stroke-width:1.07000005;stroke-linecap:butt;stroke-linejoin:round;stroke-miterlimit:10;stroke-dasharray:none;stroke-opacity:1"
         id="path200"
         inkscape:connector-curvature="0" /><path
         d="m 483.41,100.9 v 2.74"
         style="fill:none;stroke:#333333;stroke-width:1.07000005;stroke-linecap:butt;stroke-linejoin:round;stroke-miterlimit:10;stroke-dasharray:none;stroke-opacity:1"
         id="path202"
         inkscape:connector-curvature="0" /><path
         d="m 686.24,100.9 v 2.74"
         style="fill:none;stroke:#333333;stroke-width:1.07000005;stroke-linecap:butt;stroke-linejoin:round;stroke-miterlimit:10;stroke-dasharray:none;stroke-opacity:1"
         id="path204"
         inkscape:connector-curvature="0" /></g><g
       id="g206" /><g
       id="g208"><text
         transform="matrix(1,0,0,-1,273.06,92.25)"
         style="font-variant:normal;font-weight:normal;font-size:9px;font-family:Helvetica;-inkscape-font-specification:Helvetica;writing-mode:lr-tb;fill:#4d4d4d;fill-opacity:1;fill-rule:nonzero;stroke:none"
         id="text212"><tspan
           x="0 5.0040002 10.008"
           y="0"
           sodipodi:role="line"
           id="tspan210">200</tspan></text>
<text
         transform="matrix(1,0,0,-1,475.9,92.25)"
         style="font-variant:normal;font-weight:normal;font-size:9px;font-family:Helvetica;-inkscape-font-specification:Helvetica;writing-mode:lr-tb;fill:#4d4d4d;fill-opacity:1;fill-rule:nonzero;stroke:none"
         id="text216"><tspan
           x="0 5.0040002 10.008"
           y="0"
           sodipodi:role="line"
           id="tspan214">400</tspan></text>
<text
         transform="matrix(1,0,0,-1,678.74,92.25)"
         style="font-variant:normal;font-weight:normal;font-size:9px;font-family:Helvetica;-inkscape-font-specification:Helvetica;writing-mode:lr-tb;fill:#4d4d4d;fill-opacity:1;fill-rule:nonzero;stroke:none"
         id="text220"><tspan
           x="0 5.0040002 10.008"
           y="0"
           sodipodi:role="line"
           id="tspan218">600</tspan></text>
</g><g
       id="g222" /><g
       id="g224" /><g
       id="g226" /><g
       id="g228" /><g
       id="g230" /><g
       id="g232"><text
         transform="matrix(1,0,0,-1,396.91,78.87)"
         style="font-variant:normal;font-weight:normal;font-size:11px;font-family:Helvetica;-inkscape-font-specification:Helvetica;writing-mode:lr-tb;fill:#000000;fill-opacity:1;fill-rule:nonzero;stroke:none"
         id="text236"><tspan
           x="0 3.6630001 9.7790003 15.279 17.721001 23.837 29.952999"
           y="0"
           sodipodi:role="line"
           id="tspan234">residue</tspan></text>
</g><g
       id="g238" /><g
       id="g240"><text
         transform="matrix(0,1,1,0,13.38,188.11)"
         style="font-variant:normal;font-weight:normal;font-size:11px;font-family:Helvetica;-inkscape-font-specification:Helvetica;writing-mode:lr-tb;fill:#000000;fill-opacity:1;fill-rule:nonzero;stroke:none"
         id="text244"><tspan
           x="0 2.4419999"
           y="0"
           sodipodi:role="line"
           id="tspan242">id</tspan></text>
</g><g
       id="g246" /><g
       id="g248" /><g
       id="g250" /><g
       id="g252" /><g
       id="g254" /><g
       id="g256" /><g
       id="g258" /><g
       id="g260"><path
         d="m 762.49,117.41 h 312.03 V 332.15 H 762.49 Z"
         style="fill:#ffffff;fill-opacity:1;fill-rule:nonzero;stroke:none"
         id="path262"
         inkscape:connector-curvature="0" /></g><g
       id="g264" /><g
       id="g266"><text
         transform="matrix(1,0,0,-1,768.16,318.04)"
         style="font-variant:normal;font-weight:normal;font-size:11px;font-family:Helvetica;-inkscape-font-specification:Helvetica;writing-mode:lr-tb;fill:#000000;fill-opacity:1;fill-rule:nonzero;stroke:none"
         id="text270"><tspan
           x="0 6.1160002 12.232 21.395 27.511 29.952999"
           y="0"
           sodipodi:role="line"
           id="tspan268">domain</tspan></text>
</g><g
       id="g272" /><g
       id="g274"><path
         d="m 768.16,295.88 h 17.28 v 17.28 h -17.28 z"
         style="fill:#ffffff;fill-opacity:1;fill-rule:nonzero;stroke:none"
         id="path276"
         inkscape:connector-curvature="0" /></g><g
       id="g278" /><g
       id="g280"><path
         d="m 768.87,296.59 h 15.86 v 15.86 h -15.86 z"
         style="fill:#a6cee3;fill-opacity:1;fill-rule:nonzero;stroke:#333333;stroke-width:1.07000005;stroke-linecap:round;stroke-linejoin:miter;stroke-miterlimit:10;stroke-dasharray:none;stroke-opacity:1"
         id="path282"
         inkscape:connector-curvature="0" /></g><g
       id="g284" /><g
       id="g286"><path
         d="m 768.16,278.6 h 17.28 v 17.28 h -17.28 z"
         style="fill:#ffffff;fill-opacity:1;fill-rule:nonzero;stroke:none"
         id="path288"
         inkscape:connector-curvature="0" /></g><g
       id="g290" /><g
       id="g292"><path
         d="m 768.87,279.31 h 15.86 v 15.86 h -15.86 z"
         style="fill:#1f78b4;fill-opacity:1;fill-rule:nonzero;stroke:#333333;stroke-width:1.07000005;stroke-linecap:round;stroke-linejoin:miter;stroke-miterlimit:10;stroke-dasharray:none;stroke-opacity:1"
         id="path294"
         inkscape:connector-curvature="0" /></g><g
       id="g296" /><g
       id="g298"><path
         d="m 768.16,261.32 h 17.28 v 17.28 h -17.28 z"
         style="fill:#ffffff;fill-opacity:1;fill-rule:nonzero;stroke:none"
         id="path300"
         inkscape:connector-curvature="0" /></g><g
       id="g302" /><g
       id="g304"><path
         d="m 768.87,262.03 h 15.86 v 15.86 h -15.86 z"
         style="fill:#b2df8a;fill-opacity:1;fill-rule:nonzero;stroke:#333333;stroke-width:1.07000005;stroke-linecap:round;stroke-linejoin:miter;stroke-miterlimit:10;stroke-dasharray:none;stroke-opacity:1"
         id="path306"
         inkscape:connector-curvature="0" /></g><g
       id="g308" /><g
       id="g310"><path
         d="m 768.16,244.04 h 17.28 v 17.28 h -17.28 z"
         style="fill:#ffffff;fill-opacity:1;fill-rule:nonzero;stroke:none"
         id="path312"
         inkscape:connector-curvature="0" /></g><g
       id="g314" /><g
       id="g316"><path
         d="m 768.87,244.75 h 15.86 v 15.86 h -15.86 z"
         style="fill:#33a02c;fill-opacity:1;fill-rule:nonzero;stroke:#333333;stroke-width:1.07000005;stroke-linecap:round;stroke-linejoin:miter;stroke-miterlimit:10;stroke-dasharray:none;stroke-opacity:1"
         id="path318"
         inkscape:connector-curvature="0" /></g><g
       id="g320" /><g
       id="g322"><path
         d="m 768.16,226.76 h 17.28 v 17.28 h -17.28 z"
         style="fill:#ffffff;fill-opacity:1;fill-rule:nonzero;stroke:none"
         id="path324"
         inkscape:connector-curvature="0" /></g><g
       id="g326" /><g
       id="g328"><path
         d="m 768.87,227.47 h 15.86 v 15.86 h -15.86 z"
         style="fill:#fb9a99;fill-opacity:1;fill-rule:nonzero;stroke:#333333;stroke-width:1.07000005;stroke-linecap:round;stroke-linejoin:miter;stroke-miterlimit:10;stroke-dasharray:none;stroke-opacity:1"
         id="path330"
         inkscape:connector-curvature="0" /></g><g
       id="g332" /><g
       id="g334"><path
         d="m 768.16,209.48 h 17.28 v 17.28 h -17.28 z"
         style="fill:#ffffff;fill-opacity:1;fill-rule:nonzero;stroke:none"
         id="path336"
         inkscape:connector-curvature="0" /></g><g
       id="g338" /><g
       id="g340"><path
         d="m 768.87,210.19 h 15.86 v 15.86 h -15.86 z"
         style="fill:#e31a1c;fill-opacity:1;fill-rule:nonzero;stroke:#333333;stroke-width:1.07000005;stroke-linecap:round;stroke-linejoin:miter;stroke-miterlimit:10;stroke-dasharray:none;stroke-opacity:1"
         id="path342"
         inkscape:connector-curvature="0" /></g><g
       id="g344" /><g
       id="g346"><path
         d="m 768.16,192.2 h 17.28 v 17.28 h -17.28 z"
         style="fill:#ffffff;fill-opacity:1;fill-rule:nonzero;stroke:none"
         id="path348"
         inkscape:connector-curvature="0" /></g><g
       id="g350" /><g
       id="g352"><path
         d="m 768.87,192.91 h 15.86 v 15.86 h -15.86 z"
         style="fill:#fdbf6f;fill-opacity:1;fill-rule:nonzero;stroke:#333333;stroke-width:1.07000005;stroke-linecap:round;stroke-linejoin:miter;stroke-miterlimit:10;stroke-dasharray:none;stroke-opacity:1"
         id="path354"
         inkscape:connector-curvature="0" /></g><g
       id="g356" /><g
       id="g358"><path
         d="m 768.16,174.92 h 17.28 v 17.28 h -17.28 z"
         style="fill:#ffffff;fill-opacity:1;fill-rule:nonzero;stroke:none"
         id="path360"
         inkscape:connector-curvature="0" /></g><g
       id="g362" /><g
       id="g364"><path
         d="m 768.87,175.63 h 15.86 v 15.86 h -15.86 z"
         style="fill:#ff7f00;fill-opacity:1;fill-rule:nonzero;stroke:#333333;stroke-width:1.07000005;stroke-linecap:round;stroke-linejoin:miter;stroke-miterlimit:10;stroke-dasharray:none;stroke-opacity:1"
         id="path366"
         inkscape:connector-curvature="0" /></g><g
       id="g368" /><g
       id="g370"><path
         d="m 768.16,157.64 h 17.28 v 17.28 h -17.28 z"
         style="fill:#ffffff;fill-opacity:1;fill-rule:nonzero;stroke:none"
         id="path372"
         inkscape:connector-curvature="0" /></g><g
       id="g374" /><g
       id="g376"><path
         d="m 768.87,158.35 h 15.86 v 15.86 h -15.86 z"
         style="fill:#cab2d6;fill-opacity:1;fill-rule:nonzero;stroke:#333333;stroke-width:1.07000005;stroke-linecap:round;stroke-linejoin:miter;stroke-miterlimit:10;stroke-dasharray:none;stroke-opacity:1"
         id="path378"
         inkscape:connector-curvature="0" /></g><g
       id="g380" /><g
       id="g382"><path
         d="m 768.16,140.36 h 17.28 v 17.28 h -17.28 z"
         style="fill:#ffffff;fill-opacity:1;fill-rule:nonzero;stroke:none"
         id="path384"
         inkscape:connector-curvature="0" /></g><g
       id="g386" /><g
       id="g388"><path
         d="m 768.87,141.07 h 15.86 v 15.86 h -15.86 z"
         style="fill:#6a3d9a;fill-opacity:1;fill-rule:nonzero;stroke:#333333;stroke-width:1.07000005;stroke-linecap:round;stroke-linejoin:miter;stroke-miterlimit:10;stroke-dasharray:none;stroke-opacity:1"
         id="path390"
         inkscape:connector-curvature="0" /></g><g
       id="g392" /><g
       id="g394"><path
         d="m 768.16,123.08 h 17.28 v 17.28 h -17.28 z"
         style="fill:#ffffff;fill-opacity:1;fill-rule:nonzero;stroke:none"
         id="path396"
         inkscape:connector-curvature="0" /></g><g
       id="g398" /><g
       id="g400"><path
         d="m 768.87,123.79 h 15.86 v 15.86 h -15.86 z"
         style="fill:#ffff99;fill-opacity:1;fill-rule:nonzero;stroke:#333333;stroke-width:1.07000005;stroke-linecap:round;stroke-linejoin:miter;stroke-miterlimit:10;stroke-dasharray:none;stroke-opacity:1"
         id="path402"
         inkscape:connector-curvature="0" /></g><g
       id="g404" /><g
       id="g406"><text
         transform="matrix(1,0,0,-1,787.6,301.29)"
         style="font-variant:normal;font-weight:normal;font-size:9px;font-family:Helvetica;-inkscape-font-specification:Helvetica;writing-mode:lr-tb;fill:#000000;fill-opacity:1;fill-rule:nonzero;stroke:none"
         id="text410"><tspan
           x="0 6.0029998 11.007 16.011 21.014999 26.018999 31.023001 35.522999 40.527 45.783001 50.786999 53.784 58.787998 66.285004 71.289001 73.791 75.789001 80.792999 85.796997 88.299004 92.799004 97.803001 105.3 110.304 112.302 117.036 121.536 124.038 128.53799 133.54201 138.366 143.37 148.37399 150.37199 152.87399 155.37601 160.38 162.882 171.37801 177.87601 182.88 187.884 190.386 195.39 200.394 207.89101 212.895 214.89301 219.897 222.399 225.396 231.399 236.89799 241.90199 246.90601 251.91 256.914 261.918 264.42001 269.42401 272.42099"
           y="0"
           sodipodi:role="line"
           id="tspan408">Anaphase−promoting complex subunit 4 WD40 domain (PF12894.6) </tspan></text>
</g><g
       id="g412" /><g
       id="g414"><text
         transform="matrix(1,0,0,-1,787.6,284.01)"
         style="font-variant:normal;font-weight:normal;font-size:9px;font-family:Helvetica;-inkscape-font-specification:Helvetica;writing-mode:lr-tb;fill:#000000;fill-opacity:1;fill-rule:nonzero;stroke:none"
         id="text418"><tspan
           x="0 6.0029998 11.007 15.507 20.511 23.778 28.098 33.102001 35.604 37.602001 42.102001 44.604 47.105999 50.013 55.016998 60.021 64.521004 66.518997 71.523003 74.025002 76.023003 81.027 86.030998 88.532997 90.530998 95.535004 97.532997 100.035 102.033 107.037 109.539 111.537 116.541 121.545 124.047 126.279 131.283 135.783 138.285 143.289 146.286 148.78799 153.79201 156.29401 161.793 166.797 172.8 175.302 178.299 184.302 189.80099 194.80499 199.80901 204.813 209.817 214.821 217.323 222.327 227.33099 230.328"
           y="0"
           sodipodi:role="line"
           id="tspan416">Eukaryotic translation initiation factor eIF2A (PF08662.10) </tspan></text>
</g><g
       id="g420" /><g
       id="g422"><text
         transform="matrix(1,0,0,-1,787.6,266.73)"
         style="font-variant:normal;font-weight:normal;font-size:9px;font-family:Helvetica;-inkscape-font-specification:Helvetica;writing-mode:lr-tb;fill:#000000;fill-opacity:1;fill-rule:nonzero;stroke:none"
         id="text426"><tspan
           x="0 5.0040002 10.008 15.012 19.511999 21.51 26.514 31.518 34.02 40.518002 42.515999 47.015999 52.02 54.521999 61.02 66.024002 71.028 76.031998 81.036003 83.538002 86.040001 89.037003 95.040001 100.539 105.543 110.547 115.551 120.555 125.559 128.061 133.065 138.069 141.06599"
           y="0"
           sodipodi:role="line"
           id="tspan424">Leucine Rich Repeat (PF00560.32) </tspan></text>
</g><g
       id="g428" /><g
       id="g430"><text
         transform="matrix(1,0,0,-1,787.6,249.45)"
         style="font-variant:normal;font-weight:normal;font-size:9px;font-family:Helvetica;-inkscape-font-specification:Helvetica;writing-mode:lr-tb;fill:#000000;fill-opacity:1;fill-rule:nonzero;stroke:none"
         id="text434"><tspan
           x="0 5.0040002 10.008 15.012 19.511999 21.51 26.514 31.518 34.02 37.152 39.150002 43.650002 48.653999 51.155998 54.153 59.157001 64.161003 69.165001 74.168999 76.670998 79.172997 82.169998 88.172997 93.671997 98.676003 103.68 108.684 113.688 118.692 121.194 126.198 129.19501"
           y="0"
           sodipodi:role="line"
           id="tspan432">Leucine rich repeat (PF13855.5) </tspan></text>
</g><g
       id="g436" /><g
       id="g438"><text
         transform="matrix(1,0,0,-1,787.6,232.17)"
         style="font-variant:normal;font-weight:normal;font-size:9px;font-family:Helvetica;-inkscape-font-specification:Helvetica;writing-mode:lr-tb;fill:#000000;fill-opacity:1;fill-rule:nonzero;stroke:none"
         id="text442"><tspan
           x="0 5.0040002 10.008 15.012 19.511999 21.51 26.514 31.518 34.02 37.152 39.150002 43.650002 48.653999 51.155998 54.153 59.157001 64.161003 69.165001 74.168999 76.670998 79.172997 85.670998 90.927002 93.429001 98.432999 101.655 109.152 111.15 116.154 121.158 123.156 125.658 130.662 135.666 143.16299 148.16701 150.16499 155.16901 157.67101 160.668 166.67101 172.17 177.174 182.17799 187.18201 192.186 197.19 199.692 204.696 209.7 212.69701"
           y="0"
           sodipodi:role="line"
           id="tspan440">Leucine rich repeat N−terminal domain (PF08263.11) </tspan></text>
</g><g
       id="g444" /><g
       id="g446"><text
         transform="matrix(1,0,0,-1,787.6,214.89)"
         style="font-variant:normal;font-weight:normal;font-size:9px;font-family:Helvetica;-inkscape-font-specification:Helvetica;writing-mode:lr-tb;fill:#000000;fill-opacity:1;fill-rule:nonzero;stroke:none"
         id="text450"><tspan
           x="0 6.0029998 8.0010004 13.005 18.009001 20.511 23.013 25.011 29.834999 34.110001 39.113998 42.471001 44.973 49.977001 54.477001 59.480999 61.983002 66.987 71.990997 76.490997 78.992996 80.990997 85.995003 88.497002 95.994003 100.998 103.5 108.234 112.734 114.732 119.736 124.236 126.738 131.742 134.649 139.653 144.153 149.157 151.659 153.657 158.661 163.66499 165.66299 170.66701 172.66499 175.16701 180.17101 183.168 185.67 188.66701 194.67 200.16901 205.173 210.177 215.181 220.185 225.189 227.69099 232.69501 237.69901 240.696"
           y="0"
           sodipodi:role="line"
           id="tspan448">Plant invertase/pectin methylesterase inhibitor (PF04043.14) </tspan></text>
</g><g
       id="g452" /><g
       id="g454"><text
         transform="matrix(1,0,0,-1,787.6,197.61)"
         style="font-variant:normal;font-weight:normal;font-size:9px;font-family:Helvetica;-inkscape-font-specification:Helvetica;writing-mode:lr-tb;fill:#000000;fill-opacity:1;fill-rule:nonzero;stroke:none"
         id="text458"><tspan
           x="0 6.0029998 9 14.004 16.506001 21.51 23.507999 28.511999 31.014 35.514 37.512001 42.515999 47.52 52.02 57.023998 59.526001 64.529999 69.533997 77.030998 82.035004 84.032997 89.037003 91.539001 94.536003 100.539 106.038 111.042 116.046 121.05 126.054 131.058 133.56 138.564 143.56799 146.565"
           y="0"
           sodipodi:role="line"
           id="tspan456">Protein kinase domain (PF00069.24) </tspan></text>
</g><g
       id="g460" /><g
       id="g462"><text
         transform="matrix(1,0,0,-1,787.6,180.33)"
         style="font-variant:normal;font-weight:normal;font-size:9px;font-family:Helvetica;-inkscape-font-specification:Helvetica;writing-mode:lr-tb;fill:#000000;fill-opacity:1;fill-rule:nonzero;stroke:none"
         id="text466"><tspan
           x="0 6.0029998 9 14.004 16.506001 21.51 23.507999 28.511999 31.014 36.018002 38.52 41.021999 46.026001 51.029999 55.529999 60.534 65.403 71.901001 76.904999 79.406998 81.908997 86.913002 91.917 96.417 98.918999 100.917 105.921 110.925 113.427 116.424 122.922 129.42 134.91901 139.923 144.927 149.931 154.935 157.93201 160.43401 163.431 169.43401 174.933 179.937 184.94099 189.94501 194.94901 199.953 202.455 207.459 210.45599"
           y="0"
           sodipodi:role="line"
           id="tspan464">Protein of unknown function (DUF3675) (PF12428.7) </tspan></text>
</g><g
       id="g468" /><g
       id="g470"><text
         transform="matrix(1,0,0,-1,787.6,163.05)"
         style="font-variant:normal;font-weight:normal;font-size:9px;font-family:Helvetica;-inkscape-font-specification:Helvetica;writing-mode:lr-tb;fill:#000000;fill-opacity:1;fill-rule:nonzero;stroke:none"
         id="text474"><tspan
           x="0 6.0029998 9 14.004 16.506001 21.51 23.507999 28.511999 31.014 33.515999 38.015999 41.013 46.016998 50.516998 52.514999 57.519001 62.522999 65.025002 69.525002 71.523003 76.527 81.530998 86.030998 91.035004 93.537003 96.533997 102.537 108.036 113.04 118.044 123.048 128.052 133.056 135.558 140.562 145.56599 148.563"
           y="0"
           sodipodi:role="line"
           id="tspan472">Protein tyrosine kinase (PF07714.16) </tspan></text>
</g><g
       id="g476" /><g
       id="g478"><text
         transform="matrix(1,0,0,-1,787.6,145.77)"
         style="font-variant:normal;font-weight:normal;font-size:9px;font-family:Helvetica;-inkscape-font-specification:Helvetica;writing-mode:lr-tb;fill:#000000;fill-opacity:1;fill-rule:nonzero;stroke:none"
         id="text482"><tspan
           x="0 6.4980001 9 15.498 22.5 27.756001 32.030998 37.035 40.167 42.165001 47.168999 52.173 54.674999 57.176998 62.181 67.184998 74.681999 79.685997 81.683998 86.688004 89.190002 92.186996 98.190002 103.689 108.693 113.697 118.701 123.705 128.709 131.211 136.215 139.21201"
           y="0"
           sodipodi:role="line"
           id="tspan480">RING−variant domain (PF12906.6) </tspan></text>
</g><g
       id="g484" /><g
       id="g486"><text
         transform="matrix(1,0,0,-1,787.6,128.49)"
         style="font-variant:normal;font-weight:normal;font-size:9px;font-family:Helvetica;-inkscape-font-specification:Helvetica;writing-mode:lr-tb;fill:#000000;fill-opacity:1;fill-rule:nonzero;stroke:none"
         id="text490"><tspan
           x="0 8.4960003 14.994 17.496 22.5 27.504 35.000999 40.005001 42.002998 47.007 49.508999 52.011002 59.013 64.268997 69.273003 74.277 76.778999 81.782997 84.285004 87.281998 92.286003 97.290001 102.294 107.298 109.8 112.302 115.299 121.302 126.801 131.80499 136.80901 141.813 146.817 151.821 154.323 159.327 164.33099 167.328"
           y="0"
           sodipodi:role="line"
           id="tspan488">WD domain, G−beta repeat (PF00400.31) </tspan></text>
</g><g
       id="g492" /><g
       id="g494" /><g
       id="g496" /><g
       id="g498"><path
         d="m 762.49,52.62 h 48.15 v 53.46 h -48.15 z"
         style="fill:#ffffff;fill-opacity:1;fill-rule:nonzero;stroke:none"
         id="path500"
         inkscape:connector-curvature="0" /></g><g
       id="g502" /><g
       id="g504"><text
         transform="matrix(1,0,0,-1,768.16,91.96)"
         style="font-variant:normal;font-weight:normal;font-size:11px;font-family:Helvetica;-inkscape-font-specification:Helvetica;writing-mode:lr-tb;fill:#000000;fill-opacity:1;fill-rule:nonzero;stroke:none"
         id="text508"><tspan
           x="0 2.7279999 8.8439999 14.96 18.018 24.134001 27.797001"
           y="0"
           sodipodi:role="line"
           id="tspan506">feature</tspan></text>
</g><g
       id="g510" /><g
       id="g512"><path
         d="m 768.16,72.69 h 14.4 v 14.4 h -14.4 z"
         style="fill:#ffffff;fill-opacity:1;fill-rule:nonzero;stroke:none"
         id="path514"
         inkscape:connector-curvature="0" /></g><g
       id="g516" /><g
       id="g518"><path
         d="m 769.96,74.49 h 10.8 v 10.8 h -10.8 z"
         style="fill:#efc000;fill-opacity:1;fill-rule:nonzero;stroke:#cd534c;stroke-width:2.71000004;stroke-linecap:round;stroke-linejoin:miter;stroke-miterlimit:10;stroke-dasharray:none;stroke-opacity:1"
         id="path520"
         inkscape:connector-curvature="0" /></g><g
       id="g522" /><g
       id="g524"><path
         d="m 769.6,79.89 h 11.52"
         style="fill:none;stroke:#cd534c;stroke-width:10.67000008;stroke-linecap:butt;stroke-linejoin:round;stroke-miterlimit:10;stroke-dasharray:none;stroke-opacity:1"
         id="path526"
         inkscape:connector-curvature="0" /></g><g
       id="g528" /><g
       id="g530"><path
         d="m 768.16,58.29 h 14.4 v 14.4 h -14.4 z"
         style="fill:#ffffff;fill-opacity:1;fill-rule:nonzero;stroke:none"
         id="path532"
         inkscape:connector-curvature="0" /></g><g
       id="g534" /><g
       id="g536"><path
         d="m 769.96,60.09 h 10.8 v 10.8 h -10.8 z"
         style="fill:#efc000;fill-opacity:1;fill-rule:nonzero;stroke:#efc000;stroke-width:2.71000004;stroke-linecap:round;stroke-linejoin:miter;stroke-miterlimit:10;stroke-dasharray:none;stroke-opacity:1"
         id="path538"
         inkscape:connector-curvature="0" /></g><g
       id="g540" /><g
       id="g542"><path
         d="m 769.6,65.49 h 11.52"
         style="fill:none;stroke:#efc000;stroke-width:10.67000008;stroke-linecap:butt;stroke-linejoin:round;stroke-miterlimit:10;stroke-dasharray:none;stroke-opacity:1"
         id="path544"
         inkscape:connector-curvature="0" /></g><g
       id="g546" /><g
       id="g548"><text
         transform="matrix(1,0,0,-1,784.72,76.66)"
         style="font-variant:normal;font-weight:normal;font-size:9px;font-family:Helvetica;-inkscape-font-specification:Helvetica;writing-mode:lr-tb;fill:#000000;fill-opacity:1;fill-rule:nonzero;stroke:none"
         id="text552"><tspan
           x="0 6.4980001 11.754 16.254"
           y="0"
           sodipodi:role="line"
           id="tspan550">N−sp</tspan></text>
</g><g
       id="g554" /><g
       id="g556"><text
         transform="matrix(1,0,0,-1,784.72,62.26)"
         style="font-variant:normal;font-weight:normal;font-size:9px;font-family:Helvetica;-inkscape-font-specification:Helvetica;writing-mode:lr-tb;fill:#000000;fill-opacity:1;fill-rule:nonzero;stroke:none"
         id="text560"><tspan
           x="0 5.4990001"
           y="0"
           sodipodi:role="line"
           id="tspan558">TM</tspan></text>
</g><g
       id="g562" /><g
       id="g564" /><g
       id="g566" /><g
       id="g568" /><g
       id="g570" /><g
       id="g572" /><g
       id="g574" /><g
       id="g576" /><g
       id="g578" /><g
       id="g580" /></g></svg>